<svg width="68" height="50" viewBox="0 0 68 50" fill="none" xmlns="http://www.w3.org/2000/svg">
<path d="M47.34 33.1C47.34 33.1 60.41 29.59 61.52 13.76C61.52 13.76 62.77 27.05 49.65 33.45L47.34 33.1Z" fill="#339DD5"/>
<path d="M53.27 32.45C53.27 32.45 53.94 30.21 56.16 30.32C58.38 30.43 59.23 31.43 59.98 31.41C59.98 31.41 58.29 33.83 56.23 34.25C54.16 34.67 53.39 32.92 53.39 32.92C53.39 32.92 55.37 32.72 56.41 32.17C56.41 32.16 54.7 32.56 53.27 32.45Z" fill="#F2C516"/>
<path d="M58.1 28.13C58.1 28.13 58.13 25.79 60.3 25.29C62.47 24.8 63.55 25.53 64.27 25.31C64.27 25.31 63.3 28.1 61.42 29.06C59.55 30.03 58.32 28.55 58.32 28.55C58.32 28.55 60.17 27.82 61.03 27.01C61.04 27.01 59.5 27.85 58.1 28.13Z" fill="#F2C516"/>
<path d="M61.42 22.33C61.42 22.33 60.79 20.07 62.73 18.99C64.67 17.9 65.92 18.3 66.55 17.88C66.55 17.88 66.41 20.83 64.88 22.29C63.35 23.75 61.76 22.67 61.76 22.67C61.76 22.67 63.33 21.45 63.92 20.42C63.92 20.41 62.68 21.66 61.42 22.33Z" fill="#F2C516"/>
<path d="M63.34 16.42C63.34 16.42 62.25 14.35 63.92 12.88C65.59 11.41 66.89 11.54 67.42 11C67.42 11 67.9 13.92 66.71 15.66C65.52 17.4 63.74 16.69 63.74 16.69C63.74 16.69 65.02 15.17 65.38 14.04C65.39 14.03 64.44 15.51 63.34 16.42Z" fill="#F2C516"/>
<path d="M62.82 10.48C62.82 10.48 61.39 8.67 62.74 6.95C64.09 5.23 65.37 5.11 65.78 4.49C65.78 4.49 66.77 7.22 65.94 9.12C65.11 11.02 63.26 10.65 63.26 10.65C63.26 10.65 64.22 8.95 64.36 7.79C64.36 7.8 63.71 9.4 62.82 10.48Z" fill="#F2C516"/>
<path d="M60.44 12C60.44 12 58.49 12.41 57.67 10.7C56.85 8.99 57.26 7.95 56.94 7.39C56.94 7.39 59.44 7.68 60.59 9.06C61.74 10.44 60.74 11.73 60.74 11.73C60.74 11.73 59.79 10.33 58.95 9.77C58.95 9.77 59.94 10.89 60.44 12Z" fill="#F2C516"/>
<path d="M59.85 16.65C59.85 16.65 58.12 17.01 57.39 15.5C56.67 13.98 57.03 13.06 56.74 12.57C56.74 12.57 58.96 12.82 59.98 14.05C61 15.27 60.12 16.42 60.12 16.42C60.12 16.42 59.28 15.17 58.53 14.68C58.54 14.67 59.42 15.67 59.85 16.65Z" fill="#F2C516"/>
<path d="M59.31 20.88C59.31 20.88 57.84 21.19 57.23 19.9C56.61 18.61 56.92 17.83 56.68 17.41C56.68 17.41 58.56 17.62 59.43 18.66C60.3 19.7 59.55 20.67 59.55 20.67C59.55 20.67 58.83 19.61 58.2 19.19C58.19 19.2 58.93 20.04 59.31 20.88Z" fill="#F2C516"/>
<path d="M56.32 25.33C56.32 25.33 54.84 25.11 54.71 23.68C54.58 22.26 55.14 21.63 55.06 21.15C55.06 21.15 56.75 22.01 57.2 23.28C57.65 24.56 56.61 25.21 56.61 25.21C56.61 25.21 56.31 23.97 55.86 23.35C55.86 23.36 56.27 24.41 56.32 25.33Z" fill="#F2C516"/>
<path d="M51.81 28.93C51.81 28.93 50.76 27.86 51.51 26.65C52.26 25.44 53.09 25.27 53.31 24.84C53.31 24.84 54.14 26.54 53.73 27.83C53.32 29.12 52.1 29.01 52.1 29.01C52.1 29.01 52.61 27.84 52.62 27.08C52.63 27.08 52.32 28.17 51.81 28.93Z" fill="#F2C516"/>
<path d="M46.34 32.01C46.34 32.01 45.67 30.67 46.75 29.74C47.84 28.82 48.67 28.91 49.02 28.57C49.02 28.57 49.3 30.45 48.51 31.55C47.73 32.66 46.59 32.18 46.59 32.18C46.59 32.18 47.43 31.22 47.67 30.5C47.68 30.5 47.05 31.44 46.34 32.01Z" fill="#F2C516"/>
<path d="M20.18 33.1C20.18 33.1 7.11 29.59 6 13.76C6 13.76 4.76 27.05 17.87 33.45L20.18 33.1Z" fill="#339DD5"/>
<path d="M14.25 32.45C14.25 32.45 13.58 30.21 11.36 30.32C9.14 30.43 8.29 31.43 7.54 31.41C7.54 31.41 9.23 33.83 11.3 34.25C13.37 34.67 14.15 32.92 14.15 32.92C14.15 32.92 12.17 32.72 11.13 32.17C11.11 32.16 12.82 32.56 14.25 32.45Z" fill="#F2C516"/>
<path d="M9.42 28.13C9.42 28.13 9.38 25.79 7.21 25.29C5.04 24.8 3.96 25.53 3.24 25.31C3.24 25.31 4.21 28.1 6.09 29.06C7.96 30.03 9.19 28.55 9.19 28.55C9.19 28.55 7.34 27.82 6.48 27.01C6.48 27.01 8.02 27.85 9.42 28.13Z" fill="#F2C516"/>
<path d="M6.1 22.33C6.1 22.33 6.73 20.07 4.79 18.99C2.85 17.9 1.6 18.3 0.970001 17.88C0.970001 17.88 1.11 20.83 2.64 22.29C4.17 23.75 5.76 22.67 5.76 22.67C5.76 22.67 4.19 21.45 3.6 20.42C3.6 20.41 4.84 21.66 6.1 22.33Z" fill="#F2C516"/>
<path d="M4.18 16.42C4.18 16.42 5.27 14.35 3.6 12.88C1.93 11.41 0.630002 11.54 0.100002 11C0.100002 11 -0.379998 13.92 0.810002 15.66C2 17.4 3.78 16.69 3.78 16.69C3.78 16.69 2.5 15.17 2.14 14.04C2.13 14.03 3.08 15.51 4.18 16.42Z" fill="#F2C516"/>
<path d="M4.7 10.48C4.7 10.48 6.13 8.67 4.78 6.95C3.43 5.23 2.15 5.12 1.74 4.49C1.74 4.49 0.750004 7.22 1.58 9.12C2.41 11.02 4.26 10.65 4.26 10.65C4.26 10.65 3.3 8.95 3.16 7.8C3.16 7.8 3.8 9.4 4.7 10.48Z" fill="#F2C516"/>
<path d="M7.08 12C7.08 12 9.03 12.41 9.85 10.7C10.67 8.99 10.26 7.95 10.58 7.39C10.58 7.39 8.08 7.68 6.93 9.06C5.78 10.44 6.78 11.73 6.78 11.73C6.78 11.73 7.73 10.33 8.57 9.77C8.57 9.77 7.58 10.89 7.08 12Z" fill="#F2C516"/>
<path d="M7.66 16.65C7.66 16.65 9.39 17.01 10.12 15.5C10.84 13.98 10.48 13.06 10.77 12.57C10.77 12.57 8.55 12.82 7.53 14.05C6.51 15.27 7.39 16.42 7.39 16.42C7.39 16.42 8.23 15.17 8.98 14.68C8.98 14.67 8.1 15.67 7.66 16.65Z" fill="#F2C516"/>
<path d="M8.21 20.88C8.21 20.88 9.68 21.19 10.3 19.9C10.92 18.61 10.61 17.83 10.85 17.41C10.85 17.41 8.97 17.62 8.1 18.66C7.23 19.7 7.98 20.67 7.98 20.67C7.98 20.67 8.7 19.61 9.33 19.19C9.33 19.2 8.58 20.04 8.21 20.88Z" fill="#F2C516"/>
<path d="M11.2 25.33C11.2 25.33 12.68 25.11 12.81 23.68C12.94 22.26 12.38 21.63 12.46 21.15C12.46 21.15 10.77 22.01 10.32 23.28C9.87 24.56 10.92 25.21 10.92 25.21C10.92 25.21 11.22 23.97 11.67 23.35C11.66 23.36 11.25 24.41 11.2 25.33Z" fill="#F2C516"/>
<path d="M15.71 28.93C15.71 28.93 16.76 27.86 16.01 26.65C15.25 25.44 14.43 25.27 14.21 24.84C14.21 24.84 13.38 26.54 13.79 27.83C14.2 29.12 15.42 29.01 15.42 29.01C15.42 29.01 14.92 27.84 14.9 27.08C14.89 27.08 15.2 28.17 15.71 28.93Z" fill="#F2C516"/>
<path d="M21.18 32.01C21.18 32.01 21.85 30.67 20.77 29.74C19.68 28.82 18.85 28.91 18.5 28.57C18.5 28.57 18.22 30.45 19.01 31.55C19.79 32.66 20.92 32.18 20.92 32.18C20.92 32.18 20.08 31.22 19.84 30.5C19.84 30.5 20.46 31.44 21.18 32.01Z" fill="#F2C516"/>
<path d="M48.25 49.65C48.25 49.65 54.98 47.38 61.05 49.71C61.05 49.71 60.45 45.71 59.65 43.91C59.65 43.91 62.32 40.91 64.12 40.24C64.12 40.24 60.72 39.11 58.19 39.04L59.06 35.97L55.26 45.11L45.79 42.64L48.25 49.65Z" fill="#F2C516"/>
<path d="M19.25 49.65C19.25 49.65 12.22 47.38 6.15 49.71C6.15 49.71 6.75 45.71 7.55 43.91C7.55 43.91 4.88 40.91 3.08 40.24C3.08 40.24 6.48 39.11 9.01 39.04L8.11 35.97L12.24 45.11L21.71 42.64L19.25 49.65Z" fill="#F2C516"/>
<path d="M37.27 8.24C37.46 8.3 37.63 8.39 37.78 8.5C38.11 8.24 38.5 8.05 38.93 7.96C40.3 7.68 41.5 8.5 42.19 9.63C42.59 10.3 42.82 11.66 42.94 13.06C43.76 12.51 44.82 12.22 45.74 12.08C46.79 11.93 48.15 11.9 49.17 12.21C50.65 12.67 52.08 13.81 51.81 15.53C51.72 16.12 51.42 16.64 51 17.04C51.49 17.48 51.84 18.05 51.89 18.77C51.93 19.41 51.71 20.01 51.34 20.53C49.92 22.52 46.1 22.27 44.02 21.79C43.38 21.64 42.72 21.34 42.22 20.9C41.83 21.44 41.28 21.83 40.51 21.92C39.74 22 38.99 21.79 38.49 21.17L38.45 21.13C38.22 21.26 37.98 21.36 37.76 21.43C36.72 21.73 35.53 21.69 34.52 21.28C34.14 21.13 33.8 20.93 33.5 20.69C33.08 21.38 32.34 21.81 31.54 21.92C30.61 22.05 29.69 21.76 28.96 21.19C28.75 21.02 28.54 20.82 28.35 20.58C27.74 21.57 26.53 22.08 24.95 21.66C24.32 21.49 23.73 21.12 23.2 20.63C22.99 21 22.71 21.33 22.35 21.59C21.83 21.97 21.21 22.18 20.56 22.09C19.41 21.92 18.7 20.93 18.24 19.96C17.69 18.82 17.33 17.48 17.03 16.26C16.45 13.97 16 9.4 18.63 8.13C19.14 7.88 19.7 7.81 20.25 7.89C21.39 8.05 22.14 8.71 22.62 9.59C22.96 9.22 23.35 8.88 23.78 8.62C23.45 8.43 23.13 8.23 22.93 8.04C21.88 7.05 22.29 5.32 23.53 4.97C23.39 4.78 23.26 4.57 23.16 4.38C22.72 3.5 22.87 2.28 23.77 1.74C24.47 1.32 25.27 1.52 25.86 2C26.02 2.13 26.19 2.3 26.37 2.49C26.8 1.62 27.9 1.37 28.75 1.81C28.79 1.61 28.83 1.43 28.89 1.27C29.62 -0.84 32.21 -0.16 32.44 1.82L32.45 1.88C33.28 1.68 34.18 2.05 34.5 2.84C34.63 2.74 34.76 2.64 34.88 2.57C36.83 1.36 38.41 3.55 37.26 5.27C37.09 5.52 36.85 5.78 36.62 6.01C37.34 6.47 37.6 7.44 37.27 8.24Z" fill="#303380"/>
<path d="M50.02 25.97C49.93 25.97 49.85 26.01 49.78 26.06C49.66 26.13 49.5 26.23 49.11 26.23C48.68 26.23 48.42 25.9 48.42 25.34C48.42 24.83 48.68 24.52 49.1 24.52C49.38 24.52 49.52 24.56 49.64 24.6C49.72 24.62 49.78 24.64 49.86 24.64C50.17 24.64 50.24 24.45 50.24 24.29C50.24 23.96 49.71 23.79 49.21 23.79C48.13 23.79 47.64 24.58 47.64 25.37C47.64 26.34 48.22 26.92 49.2 26.92C49.66 26.92 50.34 26.72 50.34 26.28C50.34 26.14 50.29 25.97 50.02 25.97Z" fill="#303380"/>
<path d="M45.35 22.71C45.11 22.71 44.91 22.91 44.91 23.14C44.91 23.39 45.13 23.58 45.34 23.58C45.59 23.58 45.81 23.38 45.81 23.15C45.8 22.92 45.58 22.71 45.35 22.71Z" fill="#303380"/>
<path d="M45.34 23.74C45.06 23.74 45.02 24.06 45 24.18C44.96 24.43 44.96 24.82 44.96 25.35C44.96 25.75 44.97 26.12 44.99 26.42C45 26.62 45.05 26.89 45.34 26.89C45.59 26.89 45.67 26.77 45.69 26.42L45.7 26.24C45.71 25.93 45.72 25.66 45.72 25.35C45.72 24.97 45.71 24.6 45.69 24.2C45.68 24 45.64 23.74 45.34 23.74Z" fill="#303380"/>
<path d="M42.49 22.37C42.21 22.37 42.17 22.69 42.15 22.82C42.11 23.07 42.11 23.46 42.11 24C42.11 24.95 42.12 25.89 42.14 26.46C42.15 26.66 42.2 26.92 42.49 26.92C42.74 26.92 42.82 26.8 42.84 26.45C42.87 25.76 42.87 25.21 42.87 24.53C42.87 24.04 42.87 23.39 42.84 22.82C42.82 22.51 42.72 22.37 42.49 22.37Z" fill="#303380"/>
<path d="M38.9 23.83C38.6 23.83 38.22 23.92 37.96 24.17C37.99 23.77 38 23.39 38 23.07C38 22.82 38 22.44 37.63 22.44C37.29 22.44 37.23 22.8 37.21 22.92C37.17 23.23 37.14 23.76 37.14 24.42C37.14 25.05 37.15 25.66 37.34 26.12C37.56 26.65 37.98 26.91 38.62 26.91C39.6 26.91 40.21 26.31 40.21 25.34C40.22 24.43 39.69 23.83 38.9 23.83ZM38.69 26.19C38.25 26.19 38.01 25.91 38.01 25.41C38.01 24.89 38.28 24.59 38.74 24.59C39.19 24.59 39.45 24.89 39.45 25.39C39.45 26.13 38.87 26.19 38.69 26.19Z" fill="#303380"/>
<path d="M34.78 23.76C34.65 23.76 34.42 23.82 34.39 24.2C34.38 24.31 34.38 24.45 34.38 24.61C34.38 25.43 34.33 26.18 33.81 26.18C33.28 26.18 33.24 25.44 33.24 24.61C33.24 24.45 33.24 24.31 33.23 24.2C33.2 23.82 32.98 23.76 32.85 23.76C32.47 23.76 32.47 24.16 32.47 24.63C32.47 25.26 32.47 26.93 33.81 26.93C35.15 26.93 35.15 25.26 35.15 24.63C35.15 24.16 35.15 23.76 34.78 23.76Z" fill="#303380"/>
<path d="M29.15 23.77C28.6 23.77 28.22 23.93 27.98 24.27C27.71 24.64 27.59 25.22 27.59 26.11C27.59 26.51 27.62 27.05 27.64 27.44C27.65 27.56 27.65 27.67 27.66 27.76C27.68 28.19 27.92 28.25 28.06 28.25C28.46 28.25 28.46 27.84 28.46 27.59C28.46 27.31 28.44 27.03 28.41 26.7C28.58 26.81 28.81 26.9 29.07 26.9C30.02 26.9 30.67 26.3 30.67 25.4C30.65 24.38 30.09 23.77 29.15 23.77ZM29.12 24.53C29.33 24.53 29.82 24.61 29.82 25.36C29.82 26.01 29.42 26.15 29.09 26.15C28.67 26.15 28.46 25.87 28.46 25.33C28.46 24.97 28.58 24.53 29.12 24.53Z" fill="#303380"/>
<path d="M25.7 24.9C25.7 24.14 25.03 23.79 24.36 23.79C23.43 23.79 22.83 24.4 22.83 25.35C22.83 26.31 23.45 26.9 24.45 26.9C24.99 26.9 25.63 26.75 25.63 26.33C25.63 26.12 25.46 26.03 25.31 26.03C25.24 26.03 25.16 26.05 25.07 26.07C24.93 26.11 24.75 26.16 24.5 26.16C24.05 26.16 23.78 26.02 23.68 25.71C23.98 25.8 24.24 25.82 24.43 25.82C25.27 25.83 25.7 25.51 25.7 24.9ZM23.64 25.06C23.72 24.7 23.97 24.52 24.38 24.52C24.74 24.52 24.93 24.66 24.93 24.91C24.93 25.06 24.89 25.19 24.37 25.19C24.09 25.19 23.86 25.15 23.64 25.06Z" fill="#303380"/>
<path d="M20.78 23.77C20.53 23.77 20.29 23.88 20.07 24.09C20.04 23.77 19.85 23.73 19.67 23.73C19.42 23.73 19.36 23.95 19.33 24.18C19.29 24.44 19.29 24.73 19.29 25.26C19.29 25.8 19.3 26.17 19.33 26.44C19.36 26.76 19.43 26.9 19.72 26.9C19.96 26.9 20.07 26.76 20.08 26.43L20.09 26.26C20.1 25.94 20.12 25.67 20.12 25.34C20.12 25.21 20.12 25.18 20.12 25.12C20.12 25.08 20.11 25.03 20.11 24.91C20.17 24.78 20.36 24.67 20.58 24.62C20.86 24.57 21.21 24.51 21.21 24.13C21.21 23.9 21.06 23.77 20.78 23.77Z" fill="#303380"/>
<path d="M41.77 16.56C41.78 16.23 41.82 11.48 41.1 10.28C39.78 8.1 37.34 9.34 37.85 12.12C37.95 12.68 38.05 13.15 38.15 13.53C38.35 13.81 38.64 14.32 38.58 14.83C38.58 14.83 38.36 14.1 37.49 13.57C36.88 13.26 36.11 13.12 35.52 13.29C33.83 13.77 32.54 15.56 33.08 17.71C33.74 20.37 36.06 20.6 37.39 20.21C37.95 20.05 39.1 19.22 39.31 18.42C39.31 18.42 38.64 20.85 40.35 20.66C42.08 20.47 41.76 16.89 41.77 16.56ZM37.22 17.13C36.99 17.14 36.8 16.95 36.79 16.72C36.79 16.49 36.97 16.3 37.2 16.29C37.43 16.28 37.62 16.47 37.63 16.7C37.63 16.93 37.45 17.13 37.22 17.13Z" fill="#339DD5"/>
<path d="M35.11 14.17C35.11 14.17 33.72 14.31 33.56 16.75C34.48 14.9 35.75 14.49 35.11 14.17Z" fill="#6FB5DD"/>
<path d="M49.1 17.36C48.26 17.03 47.81 16.82 47.59 16.72C47.54 16.69 47.48 16.67 47.43 16.64L47.39 16.62C47.27 16.55 47.15 16.46 47.07 16.36C47.07 16.36 47.31 16.49 47.73 16.59H47.74C47.74 16.59 47.77 16.6 47.83 16.61C48.01 16.65 48.22 16.67 48.45 16.69C48.9 16.7 49.48 16.62 49.97 16.25C50.94 15.52 50.84 14.05 48.78 13.42C46.81 12.81 41.16 13.6 43.27 16.74C43.67 17.34 44.55 17.67 45.21 17.95L45.32 17.99H45.33C45.52 18.08 45.7 18.18 45.84 18.31L45.85 18.32H45.84L45.91 18.4C45.91 18.4 45.48 18.16 44.73 18.07L44.67 18.06H44.63C43.6 17.98 43.06 18.32 42.9 18.48C42.28 19.1 42.68 20.19 44.29 20.56C47.01 21.19 49.56 20.83 50.3 19.8C50.93 18.93 50.69 18 49.1 17.36Z" fill="#339DD5"/>
<path d="M46.44 14.08C46.44 14.08 46.63 13.72 46 13.76C45.37 13.8 44.19 14.05 43.62 14.89C43.06 15.73 45.23 14.41 46.44 14.08Z" fill="#6FB5DD"/>
<path d="M27.37 17.99C27.01 16.85 25.95 15.67 24.89 14.98C24.59 15.15 24.17 15.34 23.75 15.28C23.75 15.28 24.14 15.17 24.56 14.79L24.58 14.77L24.65 14.7C25.17 14.2 27.7 11.65 26.62 10.11C25.29 8.22 22.74 10.42 21.98 13.56C21.98 13.56 22.47 9.48 20.08 9.14C17.93 8.83 17.36 12.33 18.25 15.94C19.14 19.55 20.14 21.61 21.61 20.55C22.86 19.65 22.31 17.34 22.31 17.34C22.31 17.34 23.64 19.99 25.27 20.42C27.19 20.94 27.86 19.53 27.37 17.99Z" fill="#339DD5"/>
<path d="M18.76 10.58C19.19 9.84 19.82 9.74 19.58 10.64C19.33 11.58 19.04 12.59 18.94 15C18.94 15 18.08 11.76 18.76 10.58Z" fill="#6FB5DD"/>
<path d="M32.01 13.3C31.34 13 30.9 13.63 29.9 13.63C29.2 13.63 29.2 13.41 28.69 13.27C27.52 12.94 27.44 15.1 27.9 16.88C28.16 17.87 28.93 19.56 29.73 20.18C31.21 21.33 33.06 20.3 32.45 18.94C30.8 15.21 33 13.74 32.01 13.3Z" fill="#F2C519"/>
<path d="M29.85 9.71C30.48 9.57 30.87 9.77 31.04 10.09C31.36 10.67 31.05 11.56 30.41 11.75C29.72 11.96 29.11 11.81 28.69 11.29C28.27 10.77 28.21 9.93 28.61 9.36C28.99 8.83 29.58 8.53 30.25 8.57C31.99 8.66 32.87 10.47 31.96 11.92C30.74 13.88 26.6 12.92 27.39 9.6C27.79 7.89 29.3 7.23 30.96 7.54C31.19 7.6 31.32 7.83 31.27 8.05C31.21 8.28 31.04 8.35 30.82 8.29C29.83 8.11 28.69 8.28 28.23 9.3C27.64 10.58 28.26 11.71 29.1 12.1C29.96 12.5 31.32 12.12 31.6 11.05C31.95 9.7 30.8 9.17 30.04 9.21C29.27 9.25 28.96 10.02 29.1 10.52C29.21 10.91 29.61 11.07 30 11.07C30.51 11.07 30.66 10.46 30 10.52C29.77 10.56 29.55 10.4 29.51 10.17C29.46 9.97 29.62 9.75 29.85 9.71Z" fill="#F2C519"/>
<path d="M30.36 6.62C30.84 6.21 31.25 2.59 31.19 1.99C31.12 1.39 30.39 0.85 30.09 1.71C29.79 2.58 29.74 6.45 29.77 6.6C29.79 6.76 29.87 7.03 30.36 6.62Z" fill="#F2C519"/>
<path d="M29.24 6.85C29.51 6.39 28.69 3.63 28.44 3.22C28.19 2.81 27.42 2.67 27.45 3.4C27.48 4.13 28.67 6.94 28.75 7.04C28.82 7.14 28.97 7.31 29.24 6.85Z" fill="#F2C519"/>
<path d="M27.65 7.53C27.01 7.42 24.58 4.41 24.29 3.83C24 3.26 24.31 2.39 25.06 3C25.81 3.61 28.08 7.04 28.14 7.2C28.21 7.35 28.29 7.64 27.65 7.53Z" fill="#F2C519"/>
<path d="M27.04 8.56C26.55 8.74 24.12 7.44 23.79 7.13C23.46 6.82 23.49 6.04 24.18 6.2C24.86 6.36 27.25 8.02 27.33 8.11C27.41 8.21 27.53 8.39 27.04 8.56Z" fill="#F2C519"/>
<path d="M31.13 6.88C30.92 6.39 32.08 3.75 32.37 3.37C32.67 2.99 33.45 2.95 33.33 3.67C33.21 4.39 31.68 7.03 31.59 7.13C31.51 7.22 31.34 7.36 31.13 6.88Z" fill="#F2C519"/>
<path d="M32.39 7.83C33.04 7.81 35.84 5.12 36.2 4.59C36.56 4.06 36.36 3.15 35.54 3.66C34.72 4.17 32.03 7.29 31.95 7.43C31.86 7.58 31.74 7.85 32.39 7.83Z" fill="#F2C519"/>
<path d="M32.48 9.05C32.95 9.29 35.52 8.31 35.89 8.04C36.26 7.77 36.3 6.98 35.61 7.05C34.91 7.12 32.33 8.48 32.25 8.57C32.15 8.65 32.01 8.81 32.48 9.05Z" fill="#F2C519"/>
<path d="M32.88 9.7C33.27 9.31 36.3 9.29 36.79 9.41C37.28 9.53 37.64 10.23 36.9 10.41C36.15 10.59 32.95 10.27 32.83 10.22C32.7 10.19 32.49 10.09 32.88 9.7Z" fill="#F2C519"/>
<path d="M32.84 11.24C32.99 11.66 35.12 12.54 35.5 12.58C35.88 12.62 36.37 12.17 35.9 11.81C35.44 11.45 33.07 10.8 32.97 10.8C32.88 10.8 32.69 10.82 32.84 11.24Z" fill="#F2C519"/>
<path d="M28.5 14.21C27.76 13.25 27.92 17.58 28.81 17.58C28.98 17.54 28.74 14.52 28.5 14.21Z" fill="#F1DE95"/>
<path d="M12.25 45.12C12.25 45.12 16.32 45.59 19.25 49.65L21.72 42.65C21.72 42.65 13.58 44.12 12.25 45.12Z" fill="#343334"/>
<path d="M55.25 45.12C55.25 45.12 51.18 45.59 48.25 49.65L45.78 42.65C45.78 42.65 53.92 44.12 55.25 45.12Z" fill="#343334"/>
<path d="M8.12 35.98C8.12 35.98 30.92 26.91 59.06 35.98L55.26 45.11C55.26 45.11 34.73 37.78 12.26 45.11L8.12 35.98Z" fill="#F2C516"/>
<g opacity="0.1">
<g opacity="0.1">
<g opacity="0.1">
<path opacity="0.1" d="M55.25 45.12L51.29 48.96C51.29 48.96 49.66 49.2 48.25 49.66C48.25 49.65 50.76 45.86 55.25 45.12Z" fill="#343334"/>
</g>
</g>
</g>
<g opacity="0.1">
<g opacity="0.1">
<g opacity="0.1">
<path opacity="0.1" d="M56.38 42.41L60.25 39.28C60.25 39.28 59.05 39.06 58.18 39.05L59.05 35.98L56.38 42.41Z" fill="#343334"/>
</g>
</g>
</g>
<g opacity="0.1">
<g opacity="0.1">
<g opacity="0.1">
<path opacity="0.1" d="M12.25 45.12L16.21 48.96C16.21 48.96 17.84 49.2 19.25 49.66C19.25 49.65 16.74 45.86 12.25 45.12Z" fill="#343334"/>
</g>
</g>
</g>
<g opacity="0.1">
<g opacity="0.1">
<g opacity="0.1">
<path opacity="0.1" d="M10.8 42.41L6.93 39.28C6.93 39.28 8.13 39.06 9 39.05L8.13 35.98L10.8 42.41Z" fill="#343334"/>
</g>
</g>
</g>
<path d="M5.99 49.94L6.02 49.7C6.45 46.36 7.22 44.36 7.4 43.94C4.6 40.88 3.07 40.38 3.05 40.38L2.65 40.26L3.04 40.13C5.93 39.16 8.19 38.97 8.82 38.93L7.95 35.9L8.07 35.86C21.93 31.14 35.06 31.39 43.64 32.43C52.93 33.56 59.04 35.84 59.1 35.86L59.21 35.9L58.36 38.92C60.8 39.02 64.13 40.11 64.16 40.12L64.49 40.23L64.17 40.37C62.31 41.19 60.18 43.52 59.81 43.94C60.65 45.86 61.16 49.54 61.19 49.7L61.22 49.92L61.01 49.84C55.06 47.59 48.37 49.75 48.3 49.78L47.91 49.91L48.15 49.57C50.48 46.37 53.48 45.37 54.69 45.09C42.25 41.44 31.46 41.65 24.56 42.48C18.28 43.24 14.02 44.63 12.72 45.09C17.29 46.21 19.35 49.55 19.37 49.58L19.54 49.86L19.22 49.78C11.08 47.61 6.26 49.81 6.21 49.84L5.99 49.94ZM54.95 48.55C56.82 48.55 58.89 48.79 60.89 49.51C60.76 48.66 60.26 45.57 59.53 43.97L59.5 43.9L59.56 43.84C59.65 43.73 61.76 41.31 63.77 40.29C62.85 40.01 60.18 39.24 58.2 39.2H58.03L58.91 36.09C58.03 35.77 52.19 33.76 43.62 32.72C35.1 31.69 22.06 31.43 8.3 36.1L9.19 39.21H9.02C9 39.21 6.66 39.27 3.48 40.29C4.09 40.59 5.51 41.48 7.67 43.85L7.73 43.91L7.7 43.99C7.69 44.01 6.83 45.96 6.34 49.52C7.36 49.12 11.9 47.64 18.97 49.45C18.34 48.59 16.2 46.08 12.25 45.26L11.82 45.17L12.23 45.01C12.28 44.99 16.94 43.14 24.56 42.23C31.58 41.39 42.62 41.18 55.32 45.01L55.95 45.2L55.3 45.27C55.29 45.27 54.29 45.39 52.94 46C51.77 46.53 50.09 47.55 48.63 49.43C49.52 49.15 51.99 48.55 54.95 48.55Z" fill="#339DD5"/>
<path d="M12.13 38.45C12.12 38.42 12.12 38.39 12.13 38.37C12.14 38.35 12.17 38.33 12.2 38.32C12.79 38.13 13.09 38.04 13.69 37.86C13.8 37.83 13.9 37.81 14.01 37.81C14.11 37.81 14.21 37.82 14.31 37.85C14.4 37.88 14.49 37.91 14.58 37.97C14.66 38.02 14.74 38.08 14.8 38.14C14.87 38.2 14.92 38.28 14.97 38.36C15.02 38.44 15.05 38.52 15.08 38.61C15.12 38.74 15.13 38.88 15.11 39.02C15.1 39.16 15.06 39.29 14.99 39.41C14.93 39.53 14.84 39.65 14.73 39.74C14.62 39.84 14.49 39.91 14.33 39.96C14.06 40.04 13.92 40.08 13.64 40.17C13.77 40.58 13.83 40.79 13.96 41.2C13.98 41.26 13.95 41.31 13.89 41.32C13.63 41.4 13.49 41.44 13.23 41.53C13.2 41.54 13.17 41.54 13.15 41.53C13.13 41.52 13.11 41.5 13.1 41.47C12.71 40.26 12.52 39.66 12.13 38.45ZM14.16 38.86C14.15 38.82 14.13 38.78 14.1 38.74C14.07 38.7 14.04 38.67 13.99 38.64C13.95 38.62 13.9 38.6 13.85 38.59C13.8 38.58 13.75 38.58 13.69 38.6C13.49 38.66 13.4 38.69 13.2 38.75C13.29 39.04 13.33 39.18 13.42 39.48C13.61 39.42 13.71 39.39 13.91 39.33C13.96 39.32 14.01 39.29 14.05 39.26C14.09 39.23 14.12 39.19 14.14 39.15C14.16 39.11 14.17 39.06 14.17 39.01C14.18 38.96 14.18 38.91 14.16 38.86Z" fill="#339DD5"/>
<path d="M15.13 37.55C15.12 37.52 15.12 37.49 15.14 37.47C15.15 37.45 15.18 37.43 15.21 37.42C15.82 37.25 16.12 37.18 16.73 37.02C16.89 36.98 17.05 36.97 17.21 36.99C17.37 37.01 17.51 37.06 17.64 37.13C17.77 37.2 17.88 37.3 17.97 37.41C18.06 37.53 18.12 37.66 18.16 37.81C18.18 37.91 18.19 38.01 18.18 38.11C18.17 38.21 18.15 38.3 18.12 38.39C18.09 38.48 18.04 38.57 17.99 38.65C17.94 38.73 17.87 38.8 17.8 38.87C18.14 39.24 18.31 39.43 18.64 39.8C18.66 39.82 18.67 39.84 18.7 39.86C18.72 39.88 18.74 39.91 18.74 39.93C18.75 39.95 18.74 39.97 18.73 39.99C18.72 40.01 18.7 40.02 18.67 40.02C18.36 40.09 18.21 40.13 17.9 40.21C17.87 40.22 17.85 40.21 17.83 40.2C17.81 40.19 17.79 40.18 17.78 40.15C17.46 39.8 17.3 39.63 16.98 39.28C16.83 39.32 16.76 39.34 16.61 39.38C16.71 39.78 16.76 39.98 16.87 40.37C16.89 40.43 16.86 40.47 16.79 40.49C16.52 40.56 16.39 40.6 16.13 40.67C16.1 40.68 16.07 40.68 16.05 40.67C16.03 40.66 16.01 40.64 16 40.61C15.63 39.38 15.47 38.77 15.13 37.55ZM17.21 38.05C17.2 38.01 17.18 37.96 17.15 37.92C17.12 37.88 17.09 37.85 17.05 37.81C17.01 37.78 16.96 37.76 16.91 37.75C16.86 37.74 16.8 37.73 16.75 37.74C16.71 37.75 16.66 37.76 16.63 37.76C16.59 37.77 16.55 37.78 16.5 37.79C16.37 37.82 16.31 37.84 16.18 37.87C16.26 38.19 16.31 38.35 16.39 38.67C16.56 38.63 16.64 38.61 16.82 38.56C16.85 38.55 16.87 38.55 16.89 38.54C16.91 38.53 16.93 38.53 16.96 38.52C17.01 38.5 17.06 38.47 17.09 38.44C17.13 38.4 17.16 38.37 17.18 38.32C17.2 38.28 17.21 38.23 17.22 38.18C17.23 38.14 17.22 38.1 17.21 38.05Z" fill="#339DD5"/>
<path d="M18.27 36.76C18.26 36.74 18.27 36.71 18.28 36.69C18.29 36.67 18.32 36.65 18.35 36.64C18.63 36.58 18.77 36.55 19.05 36.49C19.07 36.48 19.1 36.49 19.13 36.5C19.16 36.51 19.18 36.53 19.19 36.56C19.45 37.8 19.59 38.42 19.85 39.66C19.86 39.73 19.83 39.77 19.76 39.78C19.49 39.84 19.36 39.87 19.1 39.93C19.03 39.95 18.99 39.92 18.98 39.86C18.69 38.62 18.55 38 18.27 36.76Z" fill="#339DD5"/>
<path d="M19.96 36.4C19.96 36.37 19.96 36.35 19.98 36.32C19.99 36.3 20.02 36.28 20.05 36.28C20.38 36.21 20.54 36.18 20.87 36.12C20.93 36.11 20.97 36.13 21 36.18C21.41 36.94 21.61 37.33 22 38.09C22.11 37.23 22.17 36.8 22.3 35.95C22.31 35.89 22.35 35.85 22.41 35.85C22.74 35.8 22.9 35.77 23.23 35.72C23.26 35.72 23.29 35.72 23.31 35.74C23.33 35.76 23.35 35.78 23.36 35.81C23.5 36.33 23.63 36.84 23.76 37.35C23.89 37.86 24.02 38.37 24.15 38.89V38.9C24.16 38.96 24.13 38.99 24.06 39C23.8 39.04 23.67 39.06 23.41 39.1C23.34 39.11 23.3 39.08 23.29 39.02C23.1 38.34 23.01 38 22.81 37.32C22.71 38.05 22.66 38.41 22.58 39.15C22.58 39.16 22.57 39.18 22.56 39.21C22.55 39.23 22.53 39.25 22.51 39.25C22.27 39.29 22.15 39.31 21.91 39.36C21.89 39.36 21.87 39.36 21.85 39.34C21.83 39.33 21.81 39.31 21.81 39.29C21.48 38.63 21.31 38.31 20.97 37.65C21.02 38.35 21.04 38.71 21.1 39.41C21.11 39.48 21.08 39.52 21.01 39.53C20.75 39.58 20.62 39.6 20.37 39.66C20.3 39.67 20.27 39.65 20.25 39.58C20.13 38.31 20.07 37.67 19.96 36.4Z" fill="#339DD5"/>
<path d="M25.18 35.55C25.18 35.54 25.19 35.53 25.19 35.52C25.2 35.51 25.21 35.5 25.22 35.49C25.23 35.48 25.24 35.47 25.26 35.46C25.28 35.45 25.29 35.45 25.3 35.45C25.55 35.42 25.67 35.41 25.92 35.38C25.95 35.38 25.97 35.38 25.99 35.4C26.01 35.41 26.03 35.42 26.04 35.44C26.07 35.49 26.08 35.51 26.11 35.56C26.75 36.73 27.05 37.31 27.65 38.49C27.66 38.52 27.66 38.55 27.65 38.57C27.63 38.59 27.61 38.6 27.57 38.61C27.31 38.63 27.17 38.65 26.91 38.67C26.87 38.67 26.85 38.67 26.83 38.66C26.81 38.65 26.79 38.63 26.78 38.6C26.74 38.53 26.7 38.45 26.67 38.38C26.63 38.31 26.6 38.23 26.56 38.16C26.07 38.21 25.82 38.24 25.34 38.3C25.32 38.38 25.3 38.46 25.28 38.54C25.26 38.62 25.24 38.7 25.22 38.78C25.21 38.84 25.17 38.87 25.11 38.88C24.84 38.92 24.7 38.93 24.44 38.97C24.41 38.97 24.38 38.97 24.36 38.96C24.34 38.95 24.33 38.92 24.34 38.89C24.64 37.55 24.81 36.88 25.18 35.55ZM25.73 36.46C25.71 36.54 25.69 36.63 25.67 36.72C25.65 36.81 25.63 36.91 25.61 37C25.59 37.09 25.57 37.19 25.55 37.28C25.53 37.37 25.51 37.46 25.49 37.54C25.78 37.51 25.92 37.49 26.21 37.46C26.02 37.05 25.92 36.86 25.73 36.46Z" fill="#339DD5"/>
<path d="M27.66 35.31C27.66 35.28 27.66 35.25 27.68 35.23C27.7 35.21 27.72 35.2 27.76 35.19C28.38 35.14 28.69 35.11 29.32 35.07C29.49 35.06 29.64 35.08 29.79 35.13C29.94 35.18 30.07 35.25 30.18 35.35C30.29 35.44 30.38 35.56 30.45 35.69C30.52 35.82 30.55 35.96 30.56 36.11C30.56 36.22 30.55 36.31 30.53 36.41C30.5 36.5 30.47 36.59 30.42 36.68C30.37 36.76 30.31 36.84 30.25 36.91C30.18 36.98 30.11 37.04 30.02 37.09C30.28 37.52 30.42 37.73 30.67 38.16C30.68 38.18 30.7 38.21 30.71 38.24C30.73 38.27 30.74 38.29 30.74 38.31C30.74 38.33 30.73 38.35 30.72 38.37C30.71 38.38 30.68 38.39 30.66 38.39C30.34 38.4 30.19 38.41 29.87 38.43C29.85 38.43 29.82 38.43 29.8 38.41C29.78 38.4 29.76 38.37 29.76 38.35C29.51 37.95 29.39 37.75 29.13 37.35C28.98 37.36 28.9 37.36 28.75 37.37C28.78 37.78 28.79 37.98 28.82 38.39C28.83 38.45 28.79 38.49 28.72 38.49C28.45 38.51 28.31 38.52 28.04 38.54C28.01 38.54 27.98 38.54 27.96 38.52C27.94 38.51 27.93 38.48 27.93 38.45C27.82 37.2 27.77 36.57 27.66 35.31ZM29.6 36.18C29.6 36.13 29.59 36.09 29.57 36.04C29.55 36 29.52 35.96 29.49 35.92C29.45 35.88 29.42 35.85 29.37 35.83C29.32 35.81 29.27 35.79 29.22 35.79C29.18 35.79 29.13 35.79 29.09 35.79C29.05 35.79 29.01 35.79 28.96 35.79C28.83 35.8 28.76 35.8 28.63 35.81C28.65 36.14 28.67 36.31 28.69 36.64C28.86 36.63 28.95 36.62 29.12 36.61C29.15 36.61 29.17 36.6 29.2 36.6C29.22 36.6 29.25 36.59 29.27 36.59C29.32 36.58 29.37 36.56 29.42 36.53C29.46 36.5 29.5 36.47 29.53 36.43C29.56 36.39 29.58 36.35 29.59 36.3C29.6 36.27 29.6 36.22 29.6 36.18Z" fill="#339DD5"/>
<path d="M32.19 36.2C32.41 35.73 32.52 35.49 32.75 35.02C32.76 35 32.77 34.99 32.77 34.98C32.78 34.97 32.78 34.97 32.79 34.96C32.8 34.96 32.8 34.95 32.81 34.95C32.82 34.95 32.83 34.95 32.83 34.94C33.2 34.93 33.39 34.93 33.76 34.93C33.77 34.93 33.78 34.93 33.79 34.94C33.8 34.95 33.8 34.95 33.8 34.96C33.8 34.98 33.79 35 33.77 35.02C33.31 35.78 33.09 36.16 32.65 36.93C32.66 37.44 32.66 37.69 32.67 38.2C32.67 38.27 32.64 38.31 32.57 38.31C32.29 38.31 32.16 38.32 31.88 38.32C31.85 38.32 31.83 38.31 31.81 38.29C31.79 38.27 31.78 38.25 31.78 38.21C31.77 37.7 31.76 37.45 31.75 36.94C31.28 36.19 31.05 35.82 30.56 35.08C30.54 35.06 30.53 35.04 30.53 35.03C30.53 35.02 30.53 35.01 30.54 35C30.55 34.99 30.55 34.99 30.57 34.99C30.94 34.97 31.13 34.97 31.5 34.95C31.51 34.95 31.52 34.95 31.53 34.95C31.54 34.95 31.54 34.95 31.55 34.96C31.56 34.96 31.56 34.97 31.57 34.98C31.58 34.99 31.59 35 31.6 35.02C31.83 35.51 31.95 35.74 32.19 36.2Z" fill="#339DD5"/>
<path d="M35.77 37.26C35.79 37.28 35.83 37.31 35.87 37.35C35.91 37.39 35.96 37.42 36.01 37.46C36.09 37.52 36.16 37.56 36.24 37.59C36.32 37.62 36.4 37.64 36.48 37.64C36.56 37.65 36.62 37.64 36.68 37.62C36.73 37.6 36.78 37.58 36.81 37.56C36.84 37.53 36.87 37.5 36.88 37.46C36.89 37.42 36.9 37.38 36.9 37.34C36.9 37.29 36.89 37.25 36.85 37.21C36.82 37.17 36.77 37.14 36.72 37.1C36.67 37.07 36.61 37.04 36.56 37.02C36.5 37 36.45 36.98 36.41 36.96C36.22 36.89 36.06 36.81 35.92 36.74C35.78 36.66 35.67 36.58 35.57 36.48C35.48 36.39 35.41 36.29 35.37 36.18C35.33 36.07 35.3 35.95 35.31 35.82C35.31 35.68 35.35 35.55 35.41 35.44C35.47 35.33 35.56 35.23 35.68 35.15C35.79 35.07 35.93 35.01 36.09 34.98C36.25 34.94 36.43 34.92 36.62 34.93C36.77 34.94 36.91 34.96 37.04 35C37.17 35.04 37.3 35.09 37.43 35.17C37.48 35.2 37.53 35.24 37.58 35.27C37.63 35.31 37.67 35.34 37.7 35.37C37.74 35.4 37.76 35.43 37.78 35.46C37.8 35.49 37.81 35.51 37.81 35.53C37.81 35.55 37.8 35.57 37.79 35.58C37.78 35.6 37.76 35.62 37.74 35.63C37.59 35.77 37.51 35.84 37.35 35.98C37.32 36.01 37.29 36.02 37.27 36.01C37.25 36.01 37.23 36 37.21 35.99C37.19 35.98 37.17 35.96 37.15 35.94C37.14 35.93 37.14 35.93 37.13 35.92C37.1 35.89 37.07 35.87 37.03 35.83C36.99 35.8 36.95 35.78 36.91 35.75C36.87 35.73 36.82 35.71 36.77 35.69C36.72 35.67 36.67 35.66 36.62 35.66C36.57 35.66 36.52 35.66 36.47 35.67C36.42 35.68 36.38 35.69 36.35 35.7C36.31 35.72 36.29 35.74 36.26 35.77C36.24 35.8 36.23 35.83 36.22 35.88C36.22 35.92 36.23 35.96 36.25 35.99C36.27 36.02 36.3 36.05 36.35 36.08C36.39 36.11 36.45 36.13 36.51 36.16C36.57 36.18 36.65 36.22 36.74 36.25C36.9 36.31 37.06 36.37 37.19 36.44C37.33 36.51 37.45 36.58 37.54 36.67C37.63 36.76 37.71 36.86 37.76 36.97C37.81 37.09 37.83 37.22 37.82 37.38C37.81 37.55 37.77 37.7 37.69 37.83C37.61 37.96 37.51 38.07 37.38 38.16C37.25 38.25 37.11 38.31 36.94 38.36C36.77 38.4 36.6 38.42 36.41 38.41C36.23 38.4 36.06 38.37 35.89 38.3C35.72 38.23 35.57 38.14 35.42 38.03C35.36 37.98 35.31 37.94 35.27 37.9C35.23 37.86 35.2 37.82 35.17 37.8C35.17 37.8 35.17 37.8 35.16 37.79V37.78C35.16 37.78 35.16 37.78 35.15 37.78C35.15 37.78 35.15 37.77 35.14 37.77C35.1 37.73 35.09 37.7 35.09 37.68C35.09 37.66 35.11 37.63 35.15 37.59C35.31 37.45 35.4 37.37 35.56 37.23C35.59 37.21 35.62 37.2 35.64 37.2C35.65 37.2 35.67 37.21 35.68 37.22C35.73 37.23 35.75 37.24 35.77 37.26Z" fill="#339DD5"/>
<path d="M41.08 35.59C41.1 35.61 41.12 35.63 41.13 35.65C41.14 35.68 41.14 35.7 41.11 35.74C40.92 35.94 40.83 36.04 40.65 36.24C40.63 36.26 40.61 36.28 40.59 36.28C40.57 36.28 40.55 36.27 40.52 36.25C40.45 36.18 40.37 36.13 40.28 36.09C40.19 36.05 40.09 36.03 39.99 36.02C39.86 36.01 39.74 36.02 39.63 36.06C39.52 36.1 39.42 36.15 39.33 36.23C39.24 36.31 39.18 36.4 39.12 36.5C39.07 36.61 39.04 36.72 39.03 36.84C39.02 36.96 39.03 37.08 39.07 37.19C39.11 37.3 39.16 37.4 39.23 37.49C39.3 37.58 39.39 37.65 39.49 37.7C39.59 37.76 39.71 37.79 39.84 37.8C39.94 37.81 40.04 37.8 40.14 37.78C40.24 37.76 40.32 37.72 40.41 37.68C40.44 37.67 40.46 37.66 40.48 37.67C40.5 37.68 40.52 37.69 40.53 37.72C40.67 37.96 40.73 38.08 40.87 38.32C40.88 38.35 40.88 38.38 40.87 38.4C40.86 38.42 40.83 38.44 40.81 38.45C40.66 38.53 40.49 38.59 40.32 38.62C40.15 38.65 39.97 38.66 39.79 38.64C39.63 38.63 39.47 38.59 39.33 38.54C39.18 38.49 39.05 38.42 38.92 38.33C38.8 38.24 38.68 38.14 38.59 38.03C38.49 37.92 38.41 37.8 38.34 37.66C38.27 37.53 38.22 37.39 38.19 37.24C38.16 37.09 38.15 36.93 38.16 36.78C38.17 36.62 38.2 36.47 38.25 36.32C38.3 36.17 38.37 36.04 38.46 35.92C38.55 35.8 38.65 35.69 38.77 35.59C38.89 35.49 39.02 35.41 39.16 35.35C39.3 35.29 39.45 35.24 39.61 35.21C39.77 35.18 39.94 35.18 40.11 35.19C40.3 35.21 40.48 35.25 40.65 35.32C40.78 35.39 40.94 35.48 41.08 35.59Z" fill="#339DD5"/>
<path d="M41.58 35.5C41.58 35.48 41.6 35.45 41.62 35.43C41.64 35.41 41.67 35.41 41.7 35.41C41.99 35.44 42.13 35.46 42.41 35.5C42.43 35.5 42.46 35.52 42.48 35.54C42.5 35.56 42.51 35.59 42.51 35.61C42.45 36.04 42.43 36.25 42.37 36.68C42.84 36.74 43.07 36.77 43.54 36.84L43.7 35.77C43.7 35.74 43.72 35.72 43.74 35.7C43.76 35.68 43.79 35.68 43.82 35.68C44.1 35.72 44.24 35.74 44.52 35.79C44.55 35.79 44.58 35.81 44.6 35.82C44.62 35.84 44.63 35.86 44.62 35.9C44.42 37.16 44.32 37.78 44.12 39.04C44.12 39.07 44.1 39.1 44.08 39.11C44.06 39.12 44.03 39.13 44 39.12C43.73 39.08 43.6 39.06 43.33 39.02C43.3 39.02 43.28 39 43.26 38.98C43.24 38.96 43.24 38.93 43.24 38.9C43.31 38.39 43.35 38.14 43.43 37.63C42.97 37.56 42.74 37.53 42.27 37.47C42.2 37.98 42.17 38.24 42.1 38.75C42.1 38.78 42.08 38.81 42.06 38.82C42.04 38.84 42.01 38.84 41.97 38.84C41.7 38.81 41.57 38.79 41.3 38.76C41.24 38.75 41.21 38.72 41.21 38.66C41.36 37.4 41.43 36.77 41.58 35.5Z" fill="#339DD5"/>
<path d="M44.79 37.56C44.82 37.4 44.86 37.25 44.93 37.12C45 36.98 45.08 36.85 45.18 36.74C45.28 36.62 45.4 36.53 45.52 36.44C45.65 36.35 45.79 36.29 45.93 36.24C46.08 36.19 46.23 36.16 46.4 36.15C46.56 36.14 46.73 36.15 46.9 36.18C47.07 36.21 47.22 36.26 47.37 36.34C47.52 36.41 47.65 36.5 47.77 36.6C47.89 36.7 47.99 36.82 48.08 36.94C48.17 37.07 48.24 37.2 48.29 37.35C48.34 37.49 48.37 37.64 48.38 37.79C48.39 37.94 48.38 38.1 48.34 38.26C48.31 38.41 48.25 38.56 48.18 38.7C48.11 38.83 48.02 38.96 47.91 39.06C47.81 39.17 47.69 39.26 47.56 39.34C47.43 39.42 47.3 39.48 47.15 39.53C47.01 39.58 46.86 39.61 46.7 39.62C46.55 39.63 46.39 39.62 46.23 39.59C46.07 39.56 45.92 39.51 45.78 39.44C45.64 39.37 45.51 39.29 45.4 39.19C45.28 39.09 45.18 38.98 45.09 38.86C45 38.74 44.93 38.61 44.87 38.47C44.81 38.33 44.78 38.18 44.76 38.03C44.76 37.87 44.76 37.71 44.79 37.56ZM45.69 37.71C45.67 37.83 45.67 37.95 45.69 38.07C45.71 38.18 45.76 38.29 45.82 38.38C45.88 38.47 45.96 38.55 46.06 38.62C46.16 38.68 46.27 38.73 46.4 38.76C46.53 38.78 46.65 38.78 46.76 38.76C46.88 38.73 46.98 38.69 47.07 38.63C47.16 38.56 47.24 38.48 47.31 38.39C47.38 38.29 47.42 38.18 47.45 38.06C47.47 37.94 47.48 37.82 47.46 37.7C47.44 37.58 47.4 37.48 47.33 37.38C47.27 37.28 47.19 37.2 47.09 37.13C46.99 37.06 46.87 37.02 46.74 36.99C46.61 36.96 46.49 36.96 46.37 36.99C46.25 37.01 46.15 37.06 46.05 37.13C45.96 37.2 45.88 37.28 45.81 37.38C45.76 37.48 45.72 37.59 45.69 37.71Z" fill="#339DD5"/>
<path d="M48.57 38.3C48.61 38.14 48.66 38 48.73 37.86C48.8 37.73 48.9 37.6 49 37.5C49.11 37.39 49.23 37.3 49.36 37.22C49.49 37.14 49.64 37.08 49.79 37.04C49.94 37 50.1 36.98 50.26 36.97C50.42 36.97 50.59 36.99 50.76 37.03C50.93 37.07 51.08 37.13 51.22 37.21C51.36 37.29 51.49 37.38 51.61 37.49C51.72 37.6 51.82 37.72 51.9 37.85C51.98 37.98 52.04 38.12 52.08 38.26C52.12 38.41 52.14 38.56 52.15 38.71C52.15 38.86 52.13 39.02 52.09 39.17C52.05 39.32 51.98 39.47 51.9 39.6C51.82 39.73 51.72 39.85 51.61 39.95C51.5 40.05 51.38 40.14 51.25 40.21C51.12 40.28 50.98 40.34 50.83 40.38C50.68 40.42 50.53 40.44 50.37 40.44C50.21 40.44 50.06 40.42 49.9 40.38C49.74 40.34 49.59 40.28 49.46 40.21C49.32 40.14 49.2 40.04 49.09 39.94C48.98 39.84 48.88 39.72 48.8 39.59C48.72 39.46 48.65 39.33 48.61 39.19C48.56 39.05 48.53 38.9 48.53 38.75C48.53 38.61 48.54 38.45 48.57 38.3ZM49.47 38.5C49.44 38.62 49.44 38.74 49.45 38.86C49.47 38.98 49.51 39.08 49.56 39.18C49.62 39.28 49.69 39.36 49.79 39.43C49.88 39.5 49.99 39.55 50.12 39.58C50.25 39.61 50.37 39.62 50.48 39.6C50.6 39.58 50.7 39.55 50.8 39.49C50.9 39.43 50.98 39.35 51.05 39.26C51.12 39.17 51.17 39.06 51.2 38.94C51.23 38.82 51.24 38.7 51.23 38.58C51.22 38.46 51.18 38.35 51.12 38.25C51.06 38.15 50.99 38.06 50.89 37.99C50.79 37.92 50.68 37.86 50.55 37.83C50.42 37.8 50.3 37.79 50.18 37.81C50.06 37.83 49.95 37.87 49.86 37.93C49.76 37.99 49.68 38.07 49.61 38.17C49.55 38.27 49.5 38.38 49.47 38.5Z" fill="#339DD5"/>
<path d="M52.84 37.75C52.85 37.72 52.86 37.7 52.89 37.69C52.91 37.68 52.94 37.68 52.97 37.69C53.25 37.77 53.39 37.81 53.66 37.89C53.69 37.9 53.71 37.91 53.72 37.94C53.74 37.96 53.74 37.99 53.73 38.02C53.44 38.97 53.3 39.44 53.02 40.38C53.52 40.53 53.76 40.61 54.26 40.77C54.29 40.78 54.31 40.8 54.32 40.82C54.33 40.84 54.34 40.87 54.33 40.9C54.26 41.13 54.22 41.24 54.14 41.47C54.13 41.5 54.12 41.51 54.09 41.53C54.07 41.54 54.04 41.55 54.01 41.54C53.22 41.28 52.82 41.16 52.02 40.93C51.95 40.91 51.93 40.87 51.95 40.81C52.31 39.58 52.49 38.97 52.84 37.75Z" fill="#339DD5"/>
</svg>
