<svg width="414" height="896" viewBox="0 0 414 896" fill="none" xmlns="http://www.w3.org/2000/svg">
<g clip-path="url(#clip0)">
<g clip-path="url(#clip1)">
<path d="M0 0L0 896H414L414 0H0Z" fill="#2BA3DC"/>
</g>
<g opacity="0.3">
<path d="M399.4 560.19C400.2 560.42 400.99 560.67 401.79 560.94L335.59 627.14C335.32 626.35 335.07 625.56 334.84 624.76L399.4 560.19Z" fill="white"/>
<path d="M410.17 564.63C410.84 565 411.5 565.38 412.15 565.78L340.42 637.51C340.02 636.86 339.64 636.2 339.27 635.53L410.17 564.63Z" fill="white"/>
<path d="M405.04 562.15C405.77 562.45 406.5 562.77 407.22 563.11L337.77 632.56C337.43 631.84 337.12 631.12 336.81 630.39L405.04 562.15Z" fill="white"/>
<path d="M393.16 558.81C394.05 558.95 394.93 559.11 395.8 559.3L333.94 621.16C333.76 620.28 333.59 619.4 333.45 618.52L393.16 558.81Z" fill="white"/>
<path d="M368.22 560.94C369.68 560.44 371.16 560.01 372.65 559.65L334.29 598C334.65 596.51 335.09 595.04 335.58 593.58L368.22 560.94Z" fill="white"/>
<path d="M332.94 606.96C333.01 605.8 333.13 604.64 333.28 603.49L378.14 558.63C379.29 558.48 380.45 558.37 381.61 558.29L332.94 606.96Z" fill="white"/>
<path d="M436.08 599.57C436.26 600.45 436.43 601.33 436.57 602.21L376.87 661.91C375.98 661.77 375.1 661.61 374.22 661.42L436.08 599.57Z" fill="white"/>
<path d="M414.86 567.55C415.47 567.97 416.07 568.42 416.67 568.87L343.52 642.02C343.06 641.43 342.62 640.82 342.2 640.21L414.86 567.55Z" fill="white"/>
<path d="M347.01 646.13C346.5 645.59 346.01 645.04 345.52 644.49L419.13 570.88C419.69 571.36 420.23 571.85 420.77 572.37L347.01 646.13Z" fill="white"/>
<path d="M386.18 558.19C387.17 558.21 388.17 558.26 389.16 558.34L332.99 614.51C332.91 613.52 332.86 612.52 332.84 611.53L386.18 558.19Z" fill="white"/>
<path d="M401.8 659.79C400.34 660.29 398.86 660.72 397.38 661.08L435.74 622.72C435.38 624.21 434.94 625.69 434.45 627.15L401.8 659.79Z" fill="white"/>
<path d="M423.01 574.6C423.52 575.14 424.02 575.69 424.5 576.24L350.89 649.85C350.33 649.37 349.78 648.87 349.25 648.36L423.01 574.6Z" fill="white"/>
<path d="M437.09 613.77C437.02 614.93 436.9 616.09 436.75 617.24L391.89 662.1C390.74 662.25 389.58 662.36 388.42 662.44L437.09 613.77Z" fill="white"/>
<path d="M431 635.06C428.64 639.45 425.62 643.57 421.92 647.27C418.22 650.97 414.09 653.99 409.71 656.35L431 635.06Z" fill="white"/>
<path d="M339.02 585.67C341.38 581.28 344.4 577.16 348.1 573.46C351.8 569.76 355.93 566.74 360.31 564.38L339.02 585.67Z" fill="white"/>
<path d="M426.51 578.71C426.97 579.3 427.41 579.91 427.83 580.52L355.17 653.18C354.56 652.76 353.96 652.31 353.36 651.86L426.51 578.71Z" fill="white"/>
<path d="M383.84 662.54C382.84 662.52 381.85 662.47 380.86 662.39L437.03 606.22C437.11 607.21 437.16 608.21 437.18 609.2L383.84 662.54Z" fill="white"/>
<path d="M434.45 593.59C434.72 594.38 434.97 595.17 435.2 595.97L370.63 660.54C369.83 660.31 369.04 660.06 368.24 659.79L434.45 593.59Z" fill="white"/>
<path d="M432.27 588.17C432.61 588.89 432.92 589.62 433.23 590.35L364.99 658.59C364.26 658.29 363.53 657.97 362.81 657.63L432.27 588.17Z" fill="white"/>
<path d="M429.6 583.23C430 583.88 430.38 584.55 430.75 585.21L359.86 656.1C359.19 655.73 358.53 655.35 357.88 654.95L429.6 583.23Z" fill="white"/>
<path d="M-14.76 283.87C-14.55 283.15 -14.33 282.44 -14.09 281.73L45.19 341.01C44.48 341.25 43.77 341.47 43.06 341.68L-14.76 283.87Z" fill="white"/>
<path d="M-10.78 274.23C-10.45 273.63 -10.11 273.04 -9.74997 272.45L54.48 336.68C53.89 337.04 53.3 337.38 52.7 337.71L-10.78 274.23Z" fill="white"/>
<path d="M-13 278.82C-12.73 278.17 -12.44 277.52 -12.14 276.87L50.05 339.06C49.41 339.36 48.76 339.65 48.1 339.92L-13 278.82Z" fill="white"/>
<path d="M-15.99 289.45C-15.87 288.66 -15.72 287.87 -15.55 287.08L39.84 342.47C39.05 342.64 38.27 342.78 37.47 342.91L-15.99 289.45Z" fill="white"/>
<path d="M-14.09 311.78C-14.53 310.47 -14.92 309.15 -15.25 307.82L19.1 342.17C17.77 341.85 16.45 341.46 15.14 341.01L-14.09 311.78Z" fill="white"/>
<path d="M27.12 343.38C26.08 343.31 25.05 343.21 24.02 343.08L-16.15 302.91C-16.29 301.88 -16.39 300.84 -16.45 299.8L27.12 343.38Z" fill="white"/>
<path d="M20.5 251.03C21.29 250.86 22.07 250.72 22.87 250.6L76.33 304.06C76.21 304.85 76.06 305.64 75.89 306.43L20.5 251.03Z" fill="white"/>
<path d="M-8.16998 270.03C-7.78998 269.48 -7.38998 268.94 -6.98998 268.41L58.51 333.91C57.98 334.32 57.44 334.71 56.89 335.09L-8.16998 270.03Z" fill="white"/>
<path d="M62.19 330.78C61.71 331.24 61.22 331.68 60.72 332.11L-5.19 266.2C-4.76 265.7 -4.32 265.21 -3.86 264.73L62.19 330.78Z" fill="white"/>
<path d="M-16.55 295.71C-16.53 294.82 -16.49 293.93 -16.42 293.04L33.88 343.34C32.99 343.41 32.1 343.45 31.21 343.47L-16.55 295.71Z" fill="white"/>
<path d="M74.43 281.72C74.87 283.03 75.26 284.35 75.59 285.68L41.24 251.34C42.57 251.66 43.89 252.05 45.2 252.5L74.43 281.72Z" fill="white"/>
<path d="M-1.84998 262.72C-1.36998 262.26 -0.879978 261.82 -0.379978 261.39L65.53 327.3C65.1 327.8 64.65 328.29 64.2 328.77L-1.84998 262.72Z" fill="white"/>
<path d="M33.22 250.12C34.26 250.19 35.3 250.29 36.33 250.42L76.5 290.59C76.64 291.62 76.74 292.66 76.8 293.7L33.22 250.12Z" fill="white"/>
<path d="M52.29 255.57C56.22 257.68 59.91 260.39 63.22 263.7C66.53 267.01 69.24 270.71 71.35 274.63L52.29 255.57Z" fill="white"/>
<path d="M8.06 337.93C4.13 335.82 0.440001 333.11 -2.87 329.8C-6.19 326.49 -8.89 322.79 -11 318.86L8.06 337.93Z" fill="white"/>
<path d="M1.83002 259.6C2.36002 259.19 2.90002 258.8 3.45002 258.42L68.51 323.48C68.13 324.03 67.74 324.57 67.33 325.1L1.83002 259.6Z" fill="white"/>
<path d="M76.89 297.8C76.87 298.69 76.83 299.58 76.76 300.47L26.46 250.17C27.35 250.1 28.24 250.06 29.13 250.04L76.89 297.8Z" fill="white"/>
<path d="M15.15 252.49C15.86 252.25 16.57 252.03 17.28 251.82L75.09 309.63C74.88 310.35 74.66 311.06 74.42 311.77L15.15 252.49Z" fill="white"/>
<path d="M10.29 254.44C10.93 254.14 11.59 253.85 12.24 253.58L73.34 314.68C73.07 315.33 72.79 315.98 72.48 316.63L10.29 254.44Z" fill="white"/>
<path d="M5.87 256.83C6.46 256.47 7.05 256.13 7.65 255.8L71.13 319.28C70.8 319.88 70.46 320.47 70.1 321.06L5.87 256.83Z" fill="white"/>
<path d="M395.19 411.62C425.44 409.82 448.5 383.84 446.69 353.59C444.89 323.34 418.91 300.28 388.66 302.09C358.41 303.89 335.35 329.87 337.16 360.12C338.96 390.37 364.94 413.43 395.19 411.62Z" fill="#6BCCEB"/>
<path d="M322.24 0C354.91 107.33 299.63 255.5 186.04 269.43C95.52 280.53 65.46 185.79 148.29 127.31C226.68 71.98 223.68 56.75 230.26 0H322.24Z" fill="#6BCCEB"/>
<g opacity="0.5">
<path opacity="0.5" d="M387.99 157.58C387.33 157.39 386.67 157.18 386.02 156.96L440.61 102.38C440.83 103.03 441.04 103.69 441.23 104.35L387.99 157.58Z" fill="white"/>
<path opacity="0.5" d="M379.11 153.92C378.56 153.62 378.01 153.31 377.47 152.97L436.61 93.83C436.94 94.37 437.25 94.91 437.56 95.47L379.11 153.92Z" fill="white"/>
<path opacity="0.5" d="M383.34 155.96C382.74 155.71 382.14 155.45 381.55 155.17L438.82 97.91C439.1 98.5 439.36 99.1 439.61 99.7L383.34 155.96Z" fill="white"/>
<path opacity="0.5" d="M393.13 158.71C392.4 158.6 391.67 158.46 390.95 158.31L441.95 107.31C442.1 108.04 442.24 108.76 442.35 109.49L393.13 158.71Z" fill="white"/>
<path opacity="0.5" d="M413.69 156.96C412.49 157.37 411.27 157.73 410.04 158.03L441.66 126.41C441.36 127.64 441 128.85 440.6 130.06L413.69 156.96Z" fill="white"/>
<path opacity="0.5" d="M442.79 119.01C442.73 119.97 442.64 120.92 442.51 121.87L405.52 158.86C404.57 158.98 403.61 159.08 402.66 159.14L442.79 119.01Z" fill="white"/>
<path opacity="0.5" d="M357.75 125.11C357.6 124.38 357.46 123.66 357.35 122.93L406.58 73.7C407.31 73.81 408.03 73.95 408.76 74.1L357.75 125.11Z" fill="white"/>
<path opacity="0.5" d="M375.25 151.51C374.75 151.16 374.25 150.8 373.76 150.42L434.07 90.11C434.45 90.6 434.81 91.1 435.16 91.6L375.25 151.51Z" fill="white"/>
<path opacity="0.5" d="M431.19 86.72C431.61 87.16 432.02 87.62 432.42 88.08L371.73 148.77C371.27 148.37 370.82 147.97 370.38 147.54L431.19 86.72Z" fill="white"/>
<path opacity="0.5" d="M398.89 159.22C398.07 159.2 397.25 159.16 396.43 159.1L442.74 112.79C442.81 113.61 442.85 114.43 442.86 115.25L398.89 159.22Z" fill="white"/>
<path opacity="0.5" d="M386.01 75.45C387.21 75.04 388.43 74.68 389.66 74.38L358.03 106.01C358.33 104.78 358.69 103.56 359.1 102.36L386.01 75.45Z" fill="white"/>
<path opacity="0.5" d="M368.52 145.69C368.1 145.25 367.69 144.79 367.29 144.33L427.98 83.64C428.44 84.04 428.89 84.45 429.34 84.87L368.52 145.69Z" fill="white"/>
<path opacity="0.5" d="M356.91 113.4C356.97 112.44 357.06 111.49 357.19 110.54L394.18 73.55C395.13 73.42 396.08 73.33 397.04 73.27L356.91 113.4Z" fill="white"/>
<path opacity="0.5" d="M361.93 95.84C363.87 92.22 366.36 88.83 369.42 85.77C372.47 82.72 375.87 80.23 379.49 78.28L361.93 95.84Z" fill="white"/>
<path opacity="0.5" d="M365.64 142.3C365.26 141.81 364.9 141.31 364.55 140.81L424.46 80.9C424.96 81.25 425.46 81.61 425.95 81.99L365.64 142.3Z" fill="white"/>
<path opacity="0.5" d="M400.81 73.19C401.63 73.21 402.45 73.25 403.27 73.31L356.96 119.62C356.89 118.8 356.85 117.98 356.83 117.16L400.81 73.19Z" fill="white"/>
<path opacity="0.5" d="M359.09 130.03C358.87 129.38 358.66 128.72 358.48 128.06L411.71 74.83C412.37 75.02 413.03 75.22 413.68 75.44L359.09 130.03Z" fill="white"/>
<path opacity="0.5" d="M360.89 134.51C360.61 133.92 360.35 133.32 360.1 132.72L416.36 76.46C416.96 76.71 417.56 76.97 418.15 77.25L360.89 134.51Z" fill="white"/>
<path opacity="0.5" d="M363.09 138.58C362.76 138.04 362.44 137.49 362.14 136.94L420.59 78.49C421.14 78.79 421.69 79.11 422.23 79.44L363.09 138.58Z" fill="white"/>
</g>
<path d="M51.01 92.82C38.32 71.15 63.46 66.61 88.99 51.66C114.52 36.71 135.43 10.1 148.12 31.77C160.81 53.44 145.75 90.03 120.22 104.98C94.69 119.94 63.7 114.5 51.01 92.82Z" fill="#6BCCEB"/>
<path d="M377.15 896C377.15 896 395.14 857.51 398.29 818.28C401.44 779.05 425.01 719.09 468 705.77V896H377.15Z" fill="#6BCCEB"/>
<path d="M-36 559.65V896H-1.91C2.72 887.23 5.35 877.24 5.35 866.64C5.35 860.75 4.54 855.05 3.02 849.64C1.87 845.54 -4.04 832.69 -4.97 830.14C-18.54 793.1 8.67 763.13 47.03 742.8C48.29 742.13 54.98 739.23 56.99 738.33C92.29 722.62 116.9 687.24 116.9 646.11C116.9 590.39 71.73 545.22 16.01 545.22C-3.01 545.22 -20.81 550.49 -36 559.65Z" fill="#6BCCEB"/>
<path d="M72.95 817.33C70.06 847.91 74.11 873.22 81.44 896H312.43C310.78 881.84 307.66 867.74 302.65 854.05C252.49 717.15 83.35 707.18 72.95 817.33Z" fill="#6BCCEB"/>
<path d="M-36 0V178.68C-15.51 197.11 3.84 196.5 13.96 180.76C30.02 155.78 0.42 123.81 2.93 97.06C7.24 51 26.39 50.93 28.2 18.76C28.59 11.8 28.19 5.56 27.09 0H-36Z" fill="#6BCCEB"/>
</g>
</g>
<defs>
<clipPath id="clip0">
<rect width="414" height="896" fill="white"/>
</clipPath>
<clipPath id="clip1">
<rect width="414" height="896" fill="white"/>
</clipPath>
</defs>
</svg>
